<?xml version="1.0" standalone="no"?>
<!DOCTYPE svg PUBLIC "-//W3C//DTD SVG 20010904//EN"
 "http://www.w3.org/TR/2001/REC-SVG-20010904/DTD/svg10.dtd">
<svg version="1.0" xmlns="http://www.w3.org/2000/svg"
 width="445.000000pt" height="445.000000pt" viewBox="0 0 445.000000 445.000000"
 preserveAspectRatio="xMidYMid meet">
<metadata>
Created by potrace 1.14, written by Peter Selinger 2001-2017
</metadata>
<g transform="translate(0.000000,445.000000) scale(0.100000,-0.100000)"
fill="#000000" stroke="none">
<path d="M20 3980 l0 -80 40 0 40 0 0 -40 0 -40 40 0 40 0 0 -40 0 -40 40 0
40 0 0 -40 0 -40 80 0 80 0 0 -600 0 -600 40 0 40 0 0 -40 0 -40 40 0 40 0 0
-40 0 -40 40 0 40 0 0 -120 0 -120 -120 0 -120 0 0 -80 0 -80 -40 0 -40 0 0
-120 0 -120 40 0 40 0 0 -40 0 -40 40 0 40 0 0 -40 0 -40 -80 0 -80 0 0 -40 0
-40 -40 0 -40 0 0 -120 0 -120 40 0 40 0 0 -40 0 -40 120 0 120 0 0 -120 0
-120 80 0 80 0 0 -40 0 -40 120 0 120 0 0 40 0 40 40 0 40 0 0 40 0 40 40 0
40 0 0 -80 0 -80 40 0 40 0 0 -40 0 -40 80 0 80 0 0 40 0 40 80 0 80 0 0 120
0 120 80 0 80 0 0 -160 0 -160 40 0 40 0 0 -40 0 -40 80 0 80 0 0 -40 0 -40
-40 0 -40 0 0 -40 0 -40 -40 0 -40 0 0 -40 0 -40 40 0 40 0 0 -40 0 -40 40 0
40 0 0 -40 0 -40 40 0 40 0 0 -40 0 -40 40 0 40 0 0 40 0 40 40 0 40 0 0 40 0
40 40 0 40 0 0 -80 0 -80 40 0 40 0 0 -40 0 -40 160 0 160 0 0 40 0 40 40 0
40 0 0 80 0 80 40 0 40 0 0 -40 0 -40 40 0 40 0 0 -40 0 -40 40 0 40 0 0 40 0
40 40 0 40 0 0 40 0 40 40 0 40 0 0 40 0 40 40 0 40 0 0 40 0 40 -40 0 -40 0
0 40 0 40 -40 0 -40 0 0 40 0 40 80 0 80 0 0 40 0 40 40 0 40 0 0 160 0 160
-40 0 -40 0 0 40 0 40 -80 0 -80 0 0 40 0 40 40 0 40 0 0 40 0 40 80 0 80 0 0
-40 0 -40 120 0 120 0 0 40 0 40 40 0 40 0 0 40 0 40 40 0 40 0 0 80 0 80 40
0 40 0 0 -120 0 -120 120 0 120 0 0 40 0 40 80 0 80 0 0 40 0 40 40 0 40 0 0
80 0 80 -40 0 -40 0 0 40 0 40 -40 0 -40 0 0 40 0 40 80 0 80 0 0 -40 0 -40
40 0 40 0 0 40 0 40 40 0 40 0 0 200 0 200 -40 0 -40 0 0 40 0 40 -80 0 -80 0
0 40 0 40 40 0 40 0 0 40 0 40 40 0 40 0 0 120 0 120 -40 0 -40 0 0 40 0 40
-40 0 -40 0 0 520 0 520 -40 0 -40 0 0 40 0 40 -40 0 -40 0 0 40 0 40 -40 0
-40 0 0 40 0 40 -40 0 -40 0 0 40 0 40 -1920 0 -1920 0 0 -80z m1200 -1720 l0
-40 -40 0 -40 0 0 40 0 40 40 0 40 0 0 -40z m320 0 l0 -40 -40 0 -40 0 0 40 0
40 40 0 40 0 0 -40z m2080 0 l0 -40 80 0 80 0 0 -80 0 -80 -40 0 -40 0 0 -80
0 -80 -40 0 -40 0 0 40 0 40 -120 0 -120 0 0 80 0 80 40 0 40 0 0 80 0 80 80
0 80 0 0 -40z m-800 -160 l0 -40 40 0 40 0 0 -40 0 -40 40 0 40 0 0 -40 0 -40
-80 0 -80 0 0 -120 0 -120 40 0 40 0 0 -80 0 -80 -40 0 -40 0 0 -40 0 -40 -40
0 -40 0 0 80 0 80 -40 0 -40 0 0 40 0 40 -160 0 -160 0 0 -40 0 -40 -40 0 -40
0 0 -80 0 -80 -40 0 -40 0 0 40 0 40 -40 0 -40 0 0 40 0 40 -40 0 -40 0 0 -40
0 -40 -40 0 -40 0 0 -40 0 -40 -80 0 -80 0 0 40 0 40 -40 0 -40 0 0 40 0 40
120 0 120 0 0 160 0 160 -40 0 -40 0 0 40 0 40 -120 0 -120 0 0 -40 0 -40 -40
0 -40 0 0 40 0 40 40 0 40 0 0 80 0 80 600 0 600 0 0 -40z m-2080 -80 l0 -40
-40 0 -40 0 0 40 0 40 40 0 40 0 0 -40z m400 -320 l0 -40 80 0 80 0 0 -80 0
-80 -40 0 -40 0 0 -80 0 -80 -80 0 -80 0 0 40 0 40 -80 0 -80 0 0 80 0 80 40
0 40 0 0 80 0 80 80 0 80 0 0 -40z m2080 -160 l0 -40 -40 0 -40 0 0 -40 0 -40
-40 0 -40 0 0 80 0 80 80 0 80 0 0 -40z m-2560 -400 l0 -40 -40 0 -40 0 0 40
0 40 40 0 40 0 0 -40z m1280 0 l0 -40 -80 0 -80 0 0 40 0 40 80 0 80 0 0 -40z
m-400 -80 l0 -40 -40 0 -40 0 0 40 0 40 40 0 40 0 0 -40z m1120 -200 l0 -160
-160 0 -160 0 0 160 0 160 160 0 160 0 0 -160z"/>
</g>
</svg>
